<svg width="101" height="13" viewBox="0 0 101 13" fill="none" xmlns="http://www.w3.org/2000/svg">
<path d="M3.07363 12.0595V5.96217L6.08009 10.894H7.55812L10.5814 5.79327L10.615 12.0595H13.6718L13.6382 0.23646H10.9005L6.86949 7.06001L2.73772 0.23646H0V12.0595H3.07363ZM22.1481 12.0595V0.23646H18.8225V12.0595H22.1481ZM29.9022 12.0595L32.304 8.39433L34.7394 12.0595H38.5688L34.2019 5.94528L38.3001 0.23646H34.7058L32.3879 3.64824L30.0365 0.23646H26.2911L30.3892 6.0804L26.1063 12.0595H29.9022ZM47.8177 12.0595V2.88819H51.412V0.23646H40.881V2.88819H44.4921V12.0595H47.8177ZM58.7798 12.0595V0.23646H55.4542V12.0595H58.7798ZM72.8827 12.0595V9.40772H67.2729V0.23646H63.9473V12.0595H72.8827ZM86.4313 12.0595V9.47528H80.284V7.31337H85.5075V4.81365H80.284V2.82063H86.2129V0.23646H76.9921V12.0595H86.4313ZM95.2099 12.2959C96.3296 12.2959 97.2814 12.1242 98.0652 11.7808C98.849 11.4373 99.4369 10.9785 99.8288 10.4042C100.221 9.82997 100.417 9.18815 100.417 8.47878C100.417 7.6568 100.201 7.00653 99.77 6.52798C99.3389 6.04943 98.8294 5.70037 98.2416 5.4808C97.6537 5.26123 96.9119 5.05574 96.0161 4.86432C95.2211 4.69542 94.6444 4.53215 94.2861 4.37451C93.9278 4.21687 93.7487 3.98041 93.7487 3.66513C93.7487 3.34985 93.8998 3.09368 94.2022 2.89663C94.5045 2.69958 94.986 2.60106 95.6466 2.60106C96.6991 2.60106 97.7853 2.90508 98.905 3.51312L99.9295 1.03029C99.3585 0.69249 98.6978 0.436325 97.9476 0.261795C97.1974 0.0872651 96.436 0 95.6634 0C94.5325 0 93.5779 0.1689 92.7997 0.5067C92.0215 0.844499 91.4364 1.30334 91.0445 1.88323C90.6526 2.46312 90.4567 3.11339 90.4567 3.83403C90.4567 4.65601 90.6694 5.30909 91.0949 5.79327C91.5204 6.27745 92.0299 6.62932 92.6234 6.84889C93.2168 7.06846 93.9558 7.27396 94.8404 7.46538C95.6466 7.64554 96.2317 7.81725 96.5956 7.98052C96.9595 8.14379 97.1414 8.39433 97.1414 8.73213C97.1414 9.37395 96.5032 9.69485 95.2267 9.69485C94.5549 9.69485 93.8718 9.58788 93.1776 9.37394C92.4834 9.16 91.8731 8.8785 91.3469 8.52944L90.2551 10.9954C90.815 11.3895 91.5428 11.7048 92.4386 11.9412C93.3344 12.1777 94.2581 12.2959 95.2099 12.2959Z" fill="#BFBFBF"/>
</svg>
